<svg xmlns="http://www.w3.org/2000/svg" viewBox="0 0 16 16" width="16" height="16">
  <defs>
    <linearGradient id="grad1" x1="0%" y1="0%" x2="100%" y2="100%">
      <stop offset="0%" style="stop-color:#667eea;stop-opacity:1" />
      <stop offset="100%" style="stop-color:#764ba2;stop-opacity:1" />
    </linearGradient>
  </defs>
  <rect width="16" height="16" rx="3" fill="url(#grad1)"/>
  <path d="M8 3C6.34 3 5 4.34 5 6v1H4.5c-.55 0-1 .45-1 1v5c0 .55.45 1 1 1h7c.55 0 1-.45 1-1V8c0-.55-.45-1-1-1H11V6c0-1.66-1.34-3-3-3zm0 1.5c.83 0 1.5.67 1.5 1.5v1h-3V6c0-.83.67-1.5 1.5-1.5zm0 4.5c.55 0 1 .45 1 1s-.45 1-1 1-1-.45-1-1 .45-1 1-1z" fill="white"/>
</svg>
